<svg id="SvgjsSvg1001" width="288" height="288" xmlns="http://www.w3.org/2000/svg" version="1.1"><defs id="SvgjsDefs1002"></defs><g id="SvgjsG1008" transform="matrix(1,0,0,1,0,0)"><svg xmlns="http://www.w3.org/2000/svg" width="288" height="288" data-name="Component 50 – 1" viewBox="0 0 320 320"><rect width="320" height="320" fill="#5a4c43" data-name="Rectangle 121" class="color5a4c43 svgShape"></rect><path fill="#ffffff" d="M-1943.158,143H-2025a172.1,172.1,0,0,1,14.589-27.968,142.146,142.146,0,0,1,18.463-23.015,114.15,114.15,0,0,1,21.694-17.172,93.885,93.885,0,0,1,24.285-10.436l11.178,24.841h0l.162.359L-1943.158,143h0Zm38.471,0-8.352-53.59,11.251-25A93.911,93.911,0,0,1-1877.5,74.843a114.145,114.145,0,0,1,21.694,17.171,142.1,142.1,0,0,1,18.462,23.016A172.011,172.011,0,0,1-1822.758,143h-81.928Zm3.145-79.136.163-.364h-44.739a59.4,59.4,0,0,1-14.848-8.872,59.81,59.81,0,0,1-11.625-12.674A59.187,59.187,0,0,1-1982.879,8.5a59.136,59.136,0,0,1,4.676-23.16,59.319,59.319,0,0,1,12.751-18.913,59.284,59.284,0,0,1,18.913-12.751A59.114,59.114,0,0,1-1923.379-51a59.114,59.114,0,0,1,23.16,4.676,59.27,59.27,0,0,1,18.913,12.751,59.29,59.29,0,0,1,12.752,18.913,59.129,59.129,0,0,1,4.675,23.16,59.153,59.153,0,0,1-10.56,33.851,59.776,59.776,0,0,1-11.913,12.729,59.37,59.37,0,0,1-15.188,8.785h0Z" data-name="Union 3" transform="translate(2083.379 105.5)" class="colorfff svgShape"></path></svg></g></svg>