<?xml version="1.0" standalone="no"?>
<!DOCTYPE svg PUBLIC "-//W3C//DTD SVG 20010904//EN"
 "http://www.w3.org/TR/2001/REC-SVG-20010904/DTD/svg10.dtd">
<svg version="1.0" xmlns="http://www.w3.org/2000/svg"
 width="152.000000pt" height="152.000000pt" viewBox="0 0 152.000000 152.000000"
 preserveAspectRatio="xMidYMid meet">
<metadata>
Created by potrace 1.14, written by Peter Selinger 2001-2017
</metadata>
<g transform="translate(0.000000,152.000000) scale(0.100000,-0.100000)"
fill="#000000" stroke="none">
<path d="M571 1450 c-196 -56 -363 -195 -451 -375 -60 -125 -65 -149 -65 -310
0 -140 2 -155 29 -229 51 -141 127 -250 232 -330 141 -108 263 -151 429 -151
111 0 133 3 215 25 163 44 319 166 415 326 86 143 117 348 76 516 -63 265
-257 465 -517 532 -87 22 -278 20 -363 -4z m119 -20 c-29 -25 -41 -29 -70 -25
-19 3 -43 5 -52 5 -64 0 45 45 117 48 l39 2 -34 -30z m172 9 c47 -12 55 -25
21 -34 -15 -3 -46 -15 -70 -26 -51 -23 -67 -23 -116 -1 -39 17 -39 17 -19 36
12 10 38 24 59 31 37 13 49 13 125 -6z m-242 -48 c23 -7 23 -8 5 -13 -11 -3
-42 -6 -70 -7 -27 0 -65 -5 -82 -10 -18 -5 -33 -8 -33 -6 0 2 15 12 33 24 33
21 97 26 147 12z m372 -16 c47 -32 62 -32 23 0 -36 30 -15 33 26 4 29 -21 40
-43 16 -33 -7 2 -31 -8 -53 -24 l-39 -28 -88 31 -88 31 38 17 c83 35 116 35
165 2z m-561 -9 c-22 -24 -61 -41 -61 -27 0 6 69 50 79 51 3 0 -6 -11 -18 -24z
m699 -15 c13 -10 13 -11 0 -11 -8 0 -28 12 -45 26 l-30 25 30 -15 c17 -8 37
-20 45 -25z m-520 -11 c-6 -10 -10 -22 -10 -27 1 -4 8 5 16 20 14 25 20 28 61
25 26 -2 48 -7 50 -13 1 -5 -12 -20 -30 -32 -17 -12 -50 -37 -71 -55 l-39 -32
6 39 c5 28 4 34 -3 20 -5 -11 -9 -31 -9 -45 -1 -31 -68 -100 -97 -100 -12 0
-37 6 -55 14 -19 8 -55 17 -81 21 -27 4 -48 10 -48 14 0 3 23 36 50 72 47 63
53 68 112 83 74 19 105 23 135 18 18 -4 21 -8 13 -22z m252 -19 c94 -32 98
-36 86 -75 l-11 -34 -76 60 c-42 33 -78 62 -80 64 -11 10 31 2 81 -15z m-51
-22 c67 -48 119 -101 119 -122 0 -16 -6 -19 -39 -15 -22 2 -37 0 -35 -4 3 -5
21 -8 40 -8 23 0 34 -5 34 -14 0 -8 2 -21 6 -29 3 -10 -26 -36 -91 -83 -133
-95 -125 -90 -133 -79 -4 6 -18 19 -32 30 -21 16 -20 14 4 -13 l30 -32 -35
-29 -34 -29 -13 21 c-12 21 -12 21 -6 -5 4 -21 1 -27 -15 -33 -11 -3 -20 -10
-18 -14 2 -7 -118 -123 -135 -130 -5 -2 -18 6 -29 18 l-19 21 87 44 c49 25 85
45 81 45 -4 1 -46 -18 -92 -41 l-84 -42 -37 28 c-24 18 -33 32 -27 39 5 7 15
28 22 47 19 46 87 167 118 207 l24 33 39 -22 c25 -14 39 -29 40 -42 0 -12 3
-16 6 -8 4 10 13 6 34 -14 16 -15 29 -24 29 -20 0 4 -13 19 -30 33 -16 13 -30
31 -30 39 0 8 -6 14 -12 13 -20 -4 -69 23 -65 35 5 16 57 20 57 4 0 -8 4 -6
11 5 6 11 22 17 44 17 19 0 36 4 39 8 3 5 -15 6 -39 2 -42 -6 -45 -5 -45 16 0
34 133 154 170 154 10 0 37 -14 61 -31z m285 -11 c48 -52 85 -101 109 -148
l18 -35 -41 35 c-22 19 -39 40 -37 47 2 6 -4 11 -13 11 -24 -1 -152 86 -144
99 9 12 43 32 57 33 6 0 29 -19 51 -42z m34 18 c14 -12 38 -37 54 -54 27 -29
28 -32 10 -32 -12 0 -40 23 -68 55 -47 54 -44 76 4 31z m58 -24 c20 -30 11
-28 -19 4 -13 15 -18 25 -10 22 8 -2 21 -14 29 -26z m-859 -27 c-18 -25 -34
-45 -36 -45 -2 0 -1 12 2 28 l5 27 -14 -30 c-9 -16 -15 -36 -16 -43 0 -7 -20
-21 -44 -32 -24 -10 -47 -24 -52 -32 -6 -9 -1 -8 16 3 36 23 70 30 70 14 0
-15 -42 -118 -51 -125 -43 -33 -89 -75 -89 -82 0 -6 18 6 40 26 22 20 42 36
45 36 5 0 -3 -95 -10 -117 -3 -7 -1 -13 4 -13 5 0 12 29 16 64 3 35 12 72 19
82 12 15 15 6 27 -72 8 -49 14 -97 13 -106 0 -10 3 -18 7 -18 15 0 21 -68 10
-102 -13 -40 -86 -91 -79 -55 1 6 -2 45 -6 86 -5 48 -4 76 3 80 6 4 7 12 0 21
-6 10 -12 11 -16 5 -5 -6 -25 -21 -45 -33 l-38 -21 -2 27 c-1 15 0 38 1 52 1
14 2 42 1 63 -1 47 16 114 38 147 9 14 17 27 17 30 5 37 116 157 135 145 5 -3
14 4 20 15 6 11 18 20 26 20 11 0 7 -12 -17 -45z m718 -26 c35 -23 63 -43 63
-45 0 -3 -89 -44 -96 -44 -2 0 -19 14 -38 30 -32 29 -33 32 -23 65 6 19 15 35
20 35 6 0 39 -19 74 -41z m203 3 c-7 -3 -16 2 -21 9 -16 25 -9 32 12 13 13
-12 16 -20 9 -22z m47 -31 c11 -18 7 -61 -6 -61 -3 0 -16 18 -29 40 l-23 40
23 0 c13 0 28 -8 35 -19z m-71 -3 c12 -18 22 -88 12 -82 -8 5 -48 78 -48 89 0
10 29 5 36 -7z m-656 -33 c0 -8 -7 -15 -15 -15 -9 0 -12 6 -9 15 4 8 10 15 15
15 5 0 9 -7 9 -15z m388 -16 c-9 -6 -6 -9 10 -9 25 0 29 -12 7 -30 -21 -18
-35 -4 -33 35 1 28 4 33 15 23 11 -9 11 -13 1 -19z m-538 0 c36 -13 31 -22
-25 -39 -22 -7 -61 -23 -86 -35 l-47 -22 3 31 c1 17 8 44 14 60 11 27 13 28
60 22 27 -4 64 -11 81 -17z m758 -22 l43 -44 -73 24 c-109 35 -107 34 -73 49
46 20 58 17 103 -29z m102 -18 c0 -27 -20 -33 -21 -7 0 13 -2 32 -4 43 -4 20
-4 20 11 1 8 -11 14 -28 14 -37z m73 14 c38 -61 39 -70 8 -65 -34 5 -61 49
-50 80 11 30 15 28 42 -15z m-236 -18 c43 -13 87 -31 98 -39 19 -15 19 -15
-10 -17 -29 -2 -29 -2 5 -8 32 -6 35 -9 35 -41 -1 -74 -14 -143 -31 -161 -9
-11 -12 -19 -6 -19 7 0 9 -7 5 -17 -5 -12 -15 2 -35 47 l-29 63 23 25 c13 15
29 32 36 40 15 16 34 52 28 52 -2 0 -21 -22 -42 -50 -21 -27 -41 -50 -45 -50
-9 0 -49 64 -49 78 0 5 12 13 26 16 15 4 24 9 22 11 -2 2 -17 1 -34 -4 -27 -7
-31 -4 -61 40 -18 27 -33 51 -33 54 0 9 17 6 97 -20z m-643 -12 c-51 -76 -115
-189 -130 -229 -9 -24 -23 -44 -30 -44 -19 0 -40 81 -48 184 -3 33 -1 36 52
62 61 30 127 52 156 53 18 1 18 0 0 -26z m589 -74 c-5 -4 -17 -10 -28 -13 -11
-3 -4 -3 15 -1 33 4 36 2 62 -44 l27 -48 -38 -37 -38 -37 -31 48 c-35 54 -66
124 -76 168 -6 26 -2 33 21 47 l28 16 32 -46 c18 -25 30 -49 26 -53z m247 61
c9 -18 8 -20 -15 -20 -23 0 -24 2 -15 20 6 11 13 20 15 20 2 0 9 -9 15 -20z
m-358 -60 c3 -32 1 -34 -55 -52 -32 -11 -56 -22 -54 -24 2 -2 30 5 62 16 32
11 59 19 60 18 2 -2 17 -28 34 -58 18 -30 37 -63 44 -73 11 -17 2 -28 -68 -93
-44 -40 -85 -74 -91 -74 -6 0 -17 14 -24 30 -7 17 -15 29 -17 26 -2 -2 3 -19
13 -37 11 -23 13 -34 5 -37 -6 -2 -17 -9 -24 -15 -14 -14 -67 -21 -67 -10 0 4
-12 22 -26 38 l-26 30 20 -30 c10 -16 22 -35 25 -42 5 -7 -11 -18 -43 -29 -27
-10 -48 -20 -45 -22 4 -4 88 23 117 39 35 18 31 8 -12 -32 -25 -23 -32 -31
-16 -20 l30 22 68 -68 c59 -59 68 -72 68 -104 0 -47 -3 -47 -180 -45 -77 0
-140 -2 -140 -6 0 -5 19 -8 43 -9 98 -2 224 1 250 7 16 3 27 1 27 -5 0 -6 5
-11 11 -11 5 0 8 4 5 9 -3 5 3 11 15 14 18 5 18 3 7 -11 -26 -34 -114 -115
-155 -143 -50 -35 -62 -32 -151 40 -34 28 -65 51 -70 51 -8 0 17 -22 102 -86
32 -24 56 -44 54 -44 -20 0 -165 51 -186 66 -2 1 5 21 14 44 17 42 17 43 -7
61 -13 10 -19 19 -12 19 6 0 15 -5 19 -11 4 -7 10 -7 16 -1 7 7 5 18 -7 34
-11 15 -15 17 -12 6 4 -12 1 -18 -7 -18 -21 0 -46 11 -46 20 0 8 24 19 42 20
4 0 18 10 30 23 13 12 34 30 48 40 14 10 18 15 10 11 -8 -4 -27 -16 -43 -26
-21 -15 -28 -16 -31 -6 -2 7 -9 27 -14 45 -8 23 -7 33 1 37 7 2 5 5 -4 5 -9 1
-22 14 -28 29 -6 15 -25 48 -41 72 -34 52 -37 46 73 142 56 48 71 57 83 47 12
-10 13 -9 8 5 -5 12 5 21 37 36 l44 20 24 -28 24 -27 -17 27 c-9 15 -16 29
-16 31 0 2 18 9 41 16 23 7 39 14 37 17 -3 2 -23 -2 -46 -10 -88 -31 -45 14
123 132 34 23 43 16 47 -38z m387 4 l11 -26 -32 23 c-18 12 -35 24 -37 26 -2
2 7 3 21 3 17 0 28 -8 37 -26z m55 10 c19 -18 19 -20 5 -46 -10 -19 -11 -19
-24 -1 -7 10 -15 28 -19 41 -9 27 14 31 38 6z m-46 -54 c19 -18 21 -24 11 -36
-11 -13 -14 -13 -22 3 -6 10 -19 31 -30 47 -19 27 -19 28 -1 18 10 -6 29 -20
42 -32z m-76 -104 c-12 -10 -25 -17 -26 -15 -2 2 1 36 7 74 l10 70 17 -55 c16
-55 16 -55 -8 -74z m38 89 c20 -33 21 -81 1 -59 -8 9 -32 94 -26 94 2 0 13
-16 25 -35z m113 -18 l6 -38 -18 23 c-14 17 -16 26 -8 40 14 21 13 22 20 -25z
m-23 -78 c12 -38 19 -78 17 -87 -3 -15 -5 -14 -11 3 -4 11 -18 45 -31 77 -16
40 -20 59 -12 67 6 6 12 11 14 11 1 0 12 -32 23 -71z m-686 30 c-31 -12 -39
-10 -19 5 11 8 24 12 29 8 5 -3 1 -9 -10 -13z m715 -49 c0 -18 -4 -12 -15 20
-17 56 -17 62 1 30 8 -14 14 -36 14 -50z m-66 8 c37 -83 40 -114 15 -138 -26
-24 -48 -26 -48 -5 0 23 -14 18 -27 -10 -7 -16 -7 -25 -1 -25 6 0 8 -15 6 -35
-2 -19 0 -35 4 -35 4 0 8 18 8 40 0 31 4 40 18 40 9 0 26 7 36 15 27 20 36 10
36 -41 0 -41 -5 -50 -51 -96 -27 -27 -53 -48 -55 -45 -3 3 -1 21 4 41 6 20 7
36 2 36 -4 0 -12 -21 -16 -47 -5 -25 -15 -48 -22 -51 -7 -2 -12 0 -10 5 4 14
-13 134 -22 159 -8 21 -7 24 13 25 l22 0 -22 9 c-28 11 -37 41 -28 95 5 36 12
47 40 63 l33 20 6 -21 c3 -12 6 -43 6 -69 0 -27 4 -48 8 -48 4 0 5 33 1 73 -6
63 0 97 17 97 2 0 15 -24 27 -52z m-198 -5 c14 -33 14 -37 -2 -49 -33 -24 -52
-23 -73 3 l-20 26 32 33 c18 18 36 30 40 28 5 -3 15 -21 23 -41z m-1066 -57
c1 -43 -8 -26 -13 25 -4 31 -2 38 4 24 5 -11 9 -33 9 -49z m96 -60 c7 -90 4
-116 -14 -116 -11 0 -48 86 -56 131 -6 32 -3 39 20 58 15 11 31 21 35 21 5 0
11 -42 15 -94z m889 65 c10 -11 15 -25 11 -30 -9 -16 0 -14 40 9 20 11 39 20
44 20 9 0 33 -72 26 -79 -3 -2 -5 1 -5 8 0 7 -4 10 -9 7 -5 -3 -20 3 -34 14
-14 11 -29 20 -34 20 -4 0 7 -12 25 -26 17 -14 32 -30 32 -36 0 -36 -150 -288
-172 -288 -26 0 -78 52 -79 78 -2 25 -2 26 -6 3 -5 -22 -8 -21 -59 30 -30 29
-54 58 -54 64 0 6 14 22 31 34 26 19 33 21 41 10 8 -11 9 -10 4 4 -4 13 4 21
35 33 22 9 38 19 35 21 -2 3 -15 -1 -28 -8 -12 -6 11 20 52 59 41 39 78 71 81
72 3 0 14 -9 23 -19z m-700 -41 c4 -5 -6 -15 -23 -24 -30 -16 -31 -16 -36 11
-4 16 -10 36 -16 45 -8 15 -4 15 29 -3 20 -12 41 -25 46 -29z m1071 9 c-4 -57
-15 -62 -15 -6 0 26 4 47 9 47 5 0 7 -18 6 -41z m-1375 -27 c0 -20 -4 -31 -10
-27 -5 3 -10 25 -10 48 0 31 3 38 10 27 5 -8 10 -30 10 -48z m73 -122 c4 -35
-19 -18 -34 24 -8 25 -18 43 -22 40 -3 -4 0 -22 8 -41 8 -18 10 -31 4 -27 -18
11 -31 56 -19 68 5 5 10 26 11 46 0 33 2 31 25 -30 14 -36 26 -72 27 -80z
m1274 68 c-2 -13 -4 -3 -4 22 0 25 2 35 4 23 2 -13 2 -33 0 -45z m-1005 35
c10 -9 18 -21 18 -27 0 -12 -50 -66 -62 -66 -5 0 -16 17 -25 37 -14 36 -14 38
7 55 27 22 38 23 62 1z m-106 -8 c-3 -8 -1 -15 4 -15 5 0 18 -19 28 -42 l19
-43 -45 -53 c-24 -29 -42 -55 -40 -58 3 -2 23 18 44 46 21 27 41 50 44 50 12
0 51 -80 45 -90 -3 -5 0 -10 8 -10 8 0 28 -22 45 -50 l31 -50 -24 0 c-27 0
-189 60 -181 67 3 3 -2 12 -11 21 -12 13 -14 29 -9 83 3 37 11 80 18 96 6 15
10 36 9 46 -1 9 3 17 9 17 7 0 10 -7 6 -15z m909 -38 c7 -18 17 -69 20 -113
l7 -80 -58 -27 c-105 -46 -164 -64 -164 -47 0 5 21 42 48 82 26 40 63 106 82
146 19 39 38 72 43 72 4 0 14 -15 22 -33z m-710 -89 c18 -33 21 -48 12 -51 -7
-3 -6 -6 4 -6 10 -1 20 -13 23 -28 4 -16 9 -36 12 -45 3 -12 -5 -22 -25 -33
l-31 -15 -30 41 c-31 44 -35 54 -22 62 4 2 2 2 -5 1 -7 -2 -26 20 -43 48 l-31
51 37 38 38 39 18 -28 c11 -15 30 -48 43 -74z m-247 30 c-5 -24 -10 -55 -10
-70 -1 -16 -2 -28 -4 -28 -2 0 -11 25 -20 57 -16 56 -16 56 7 74 32 24 39 16
27 -33z m-50 -37 c17 -57 14 -61 -13 -17 -22 37 -24 56 -6 56 4 0 13 -17 19
-39z m-105 -27 c-6 -16 -7 -16 -14 2 -4 10 -8 28 -8 39 -1 19 0 18 14 -2 8
-12 12 -29 8 -39z m1287 -39 c-6 -30 -22 -68 -35 -83 -27 -32 -91 -69 -101
-59 -4 4 0 30 10 59 12 40 31 67 74 108 32 31 58 50 60 43 2 -7 -2 -38 -8 -68z
m-1196 28 c29 -49 23 -48 -37 6 -20 18 -24 27 -15 33 20 12 21 11 52 -39z
m-52 -61 c-8 -2 -21 3 -30 12 -13 13 -14 20 -3 43 l12 27 18 -39 c15 -34 16
-41 3 -43z m55 18 c22 -17 23 -21 9 -26 -11 -4 -22 1 -31 12 -28 37 -16 44 22
14z m-40 -36 c26 -7 47 -54 38 -83 -9 -28 -21 -19 -50 40 -26 50 -25 53 12 43z
m73 -8 c0 -21 -21 -31 -31 -15 -5 8 -3 17 4 21 18 12 27 10 27 -6z m1000 -70
c-10 -28 -12 -29 -68 -23 -31 3 -70 10 -87 17 -30 11 -29 12 58 45 48 18 91
36 95 40 12 12 14 -49 2 -79z m-978 12 c2 -21 3 -38 2 -38 -1 0 -9 11 -18 25
-14 21 -14 29 -5 48 13 24 16 20 21 -35z m742 1 c-2 -4 -17 -9 -34 -11 -28 -4
-30 -3 -30 29 l0 33 34 -22 c19 -13 33 -26 30 -29z m-569 -32 l-36 -18 -44 37
c-25 20 -45 40 -45 44 0 5 36 -4 80 -18 l80 -26 -35 -19z m-130 3 c24 -48 24
-50 6 -50 -20 0 -24 8 -36 68 -9 46 1 40 30 -18z m40 8 c33 -31 37 -48 11 -48
-7 0 -22 18 -35 40 -27 48 -20 50 24 8z m-91 -28 l26 -40 -24 0 c-32 0 -50 24
-42 55 4 14 8 25 10 25 2 0 15 -18 30 -40z m821 25 c20 -9 61 -19 91 -23 l55
-7 -41 -59 c-60 -86 -74 -96 -148 -111 -30 -6 -132 -15 -132 -12 0 2 9 28 20
60 11 31 20 64 20 74 1 28 60 88 91 92 4 1 23 -6 44 -14z m265 5 c0 -13 -78
-98 -100 -110 -16 -9 -16 -6 -2 34 12 34 25 48 56 63 23 11 42 21 44 21 1 1 2
-3 2 -8z m-795 -27 c28 -31 30 -40 15 -78 l-10 -26 -39 20 c-21 11 -53 32 -71
47 l-32 27 34 18 c47 25 73 23 103 -8z m-96 -58 c26 -19 53 -35 58 -35 6 0 16
-6 22 -14 10 -12 7 -18 -18 -30 -43 -23 -54 -20 -92 22 -53 59 -61 70 -54 82
11 18 33 11 84 -25z m768 -12 c-15 -27 -64 -78 -56 -57 2 5 18 31 34 56 32 48
46 49 22 1z m-828 -29 c23 -31 41 -58 38 -61 -7 -6 -117 96 -117 108 0 26 40
1 79 -47z m-95 20 c3 -8 2 -14 -2 -14 -10 0 -32 22 -32 32 0 12 28 -2 34 -18z
m631 -6 c-4 -18 -16 -50 -26 -70 -15 -30 -24 -37 -42 -34 -12 3 -32 5 -44 5
-27 1 -31 27 -5 35 9 4 40 26 67 51 28 24 51 44 53 45 2 0 0 -15 -3 -32z
m-585 -23 c13 -14 19 -25 13 -25 -6 0 -18 11 -27 25 -9 14 -15 25 -13 25 2 0
14 -11 27 -25z m284 -39 c34 -13 70 -27 81 -31 17 -6 15 -9 -20 -25 -77 -33
-108 -33 -159 -3 -25 15 -46 30 -46 33 0 7 63 49 74 49 5 1 37 -10 70 -23z
m-202 -38 c32 -22 45 -23 28 -3 -10 12 -10 15 3 15 9 0 19 -5 23 -11 3 -6 20
-19 38 -30 17 -10 24 -19 15 -19 -8 0 -24 7 -35 15 -22 16 -38 20 -29 5 12
-20 -53 12 -76 37 -24 27 -15 24 33 -9z m727 19 c-2 -2 -22 -14 -44 -26 l-40
-23 28 26 c15 14 35 26 44 26 9 0 14 -1 12 -3z m-316 -42 c25 -10 21 -20 -15
-44 -18 -11 -27 -21 -20 -21 7 0 29 12 47 26 33 25 35 25 82 11 l48 -14 -55
-16 c-30 -9 -68 -17 -85 -17 -86 -1 -164 9 -200 25 l-40 18 35 8 c19 4 55 16
80 27 43 18 73 18 123 -3z m237 20 c0 -8 -56 -34 -84 -39 -14 -3 -45 1 -69 9
l-42 13 50 2 c28 0 68 5 90 9 54 12 55 12 55 6z"/>
<path d="M708 1163 c6 -2 18 -2 25 0 6 3 1 5 -13 5 -14 0 -19 -2 -12 -5z"/>
<path d="M773 1163 c15 -2 37 -2 50 0 12 2 0 4 -28 4 -27 0 -38 -2 -22 -4z"/>
<path d="M591 1004 c0 -11 3 -14 6 -6 3 7 2 16 -1 19 -3 4 -6 -2 -5 -13z"/>
<path d="M601 964 c0 -11 3 -14 6 -6 3 7 2 16 -1 19 -3 4 -6 -2 -5 -13z"/>
<path d="M238 833 c7 -3 16 -2 19 1 4 3 -2 6 -13 5 -11 0 -14 -3 -6 -6z"/>
<path d="M660 806 c0 -8 4 -17 9 -20 5 -4 7 3 4 14 -6 23 -13 26 -13 6z"/>
<path d="M815 780 c9 -16 18 -30 21 -30 2 0 -2 14 -11 30 -9 17 -18 30 -21 30
-2 0 2 -13 11 -30z"/>
<path d="M690 750 c6 -11 13 -20 16 -20 2 0 0 9 -6 20 -6 11 -13 20 -16 20 -2
0 0 -9 6 -20z"/>
<path d="M630 570 c-8 -5 -10 -10 -5 -10 6 0 17 5 25 10 8 5 11 10 5 10 -5 0
-17 -5 -25 -10z"/>
<path d="M588 553 c7 -3 16 -2 19 1 4 3 -2 6 -13 5 -11 0 -14 -3 -6 -6z"/>
<path d="M679 513 c-13 -16 -12 -17 4 -4 16 13 21 21 13 21 -2 0 -10 -8 -17
-17z"/>
<path d="M1040 740 c-19 -11 -31 -19 -27 -20 11 0 67 29 67 35 0 7 -1 7 -40
-15z"/>
<path d="M980 710 c-9 -6 -10 -10 -3 -10 6 0 15 5 18 10 8 12 4 12 -15 0z"/>
<path d="M911 544 c0 -11 3 -14 6 -6 3 7 2 16 -1 19 -3 4 -6 -2 -5 -13z"/>
<path d="M330 490 c-20 -6 -21 -8 -5 -8 11 0 34 4 50 8 27 7 27 8 5 8 -14 0
-36 -4 -50 -8z"/>
</g>
</svg>
